#N canvas 569 134 648 532 10;
#X obj 67 35 bng 15 250 50 0 empty empty empty 17 7 0 10 -262144 -1
-1;
#X obj 66 374 gemwin;
#X msg 76 185 destroy;
#X msg 182 120 create;
#X msg 182 143 dimen 200 200;
#X obj 76 121 delay 5000;
#X obj 226 336 gemhead;
#X obj 226 373 colorRGB 1 1 1 1;
#X obj 226 410 rotateXYZ;
#X obj 226 441 translateXYZ;
#X obj 226 475 square 1 1 1;
#X obj 133 186 tgl 15 0 empty empty empty 17 7 0 10 -262144 -1 -1 0
1;
#X obj 224 206 tgl 15 0 empty empty empty 17 7 0 10 -262144 -1 -1 0
1;
#X obj 76 143 t b b b b;
#X obj 108 18 delay 2000;
#X obj 226 309 tgl 15 0 empty empty empty 17 7 0 10 -262144 -1 -1 0
1;
#X obj 67 75 t b b b b b b;
#X obj 225 265 t b b;
#X obj 378 176 random 19;
#X floatatom 378 271 5 0 0 0 - - -;
#X obj 378 248 *;
#X floatatom 378 198 5 0 0 0 - - -;
#X obj 378 146 t b b;
#X floatatom 378 320 5 0 0 0 - - -;
#X obj 378 343 +;
#X floatatom 378 373 5 0 0 0 - - -;
#X obj 378 393 t f f;
#X obj 442 222 select 0 1;
#X msg 470 244 -1;
#X msg 499 244 +1;
#X obj 350 105 tgl 15 0 empty empty empty 17 7 0 10 -262144 -1 -1 0
1;
#X floatatom 442 199 5 0 0 0 - - -;
#X obj 442 176 random 2;
#X obj 225 237 metro 125;
#X connect 0 0 16 0;
#X connect 2 0 1 0;
#X connect 3 0 1 0;
#X connect 4 0 1 0;
#X connect 5 0 13 0;
#X connect 6 0 7 0;
#X connect 7 0 8 0;
#X connect 8 0 9 0;
#X connect 9 0 10 0;
#X connect 11 0 1 0;
#X connect 12 0 33 0;
#X connect 13 0 14 0;
#X connect 13 1 2 0;
#X connect 13 2 11 0;
#X connect 13 3 12 0;
#X connect 15 0 6 0;
#X connect 16 0 1 0;
#X connect 16 1 5 0;
#X connect 16 2 3 0;
#X connect 16 3 4 0;
#X connect 16 4 11 0;
#X connect 16 5 12 0;
#X connect 17 0 22 0;
#X connect 17 1 15 0;
#X connect 18 0 21 0;
#X connect 19 0 23 0;
#X connect 20 0 19 0;
#X connect 21 0 20 0;
#X connect 22 0 32 0;
#X connect 22 1 18 0;
#X connect 23 0 24 0;
#X connect 24 0 25 0;
#X connect 25 0 26 0;
#X connect 26 0 24 1;
#X connect 26 1 8 3;
#X connect 27 1 28 0;
#X connect 27 2 29 0;
#X connect 28 0 20 1;
#X connect 29 0 20 1;
#X connect 30 0 33 0;
#X connect 31 0 27 0;
#X connect 32 0 31 0;
#X connect 33 0 17 0;
