#N canvas 563 114 660 645 10;
#X obj 55 105 gemwin;
#X text 58 -48 on/off;
#N canvas 997 133 450 300 gemgen 0;
#X obj 329 220 tgl 15 0 empty empty empty 17 7 0 10 -262144 -1 -1 1
1;
#X msg 89 219 create;
#X obj 89 38 inlet;
#X obj 89 271 outlet;
#X obj 89 84 select 0 1;
#X msg 224 218 destroy;
#X obj 89 104 bng 15 250 50 0 empty empty empty 17 7 0 10 -262144 -1
-1;
#X obj 117 104 bng 15 250 50 0 empty empty empty 17 7 0 10 -262144
-1 -1;
#X obj 146 271 outlet;
#X obj 89 181 t b b b b;
#X obj 224 181 t b b b;
#X obj 185 38 inlet;
#X msg 142 219 dimen \$1 \$2;
#X obj 202 63 bng 15 250 50 0 empty empty empty 17 7 0 10 -262144 -1
-1;
#X connect 0 0 3 0;
#X connect 1 0 3 0;
#X connect 2 0 4 0;
#X connect 4 0 6 0;
#X connect 4 1 7 0;
#X connect 5 0 3 0;
#X connect 6 0 10 0;
#X connect 7 0 9 0;
#X connect 9 0 0 0;
#X connect 9 1 8 0;
#X connect 9 2 12 0;
#X connect 9 3 1 0;
#X connect 10 0 5 0;
#X connect 10 1 8 0;
#X connect 10 2 0 0;
#X connect 11 0 12 0;
#X connect 11 0 13 0;
#X connect 12 0 3 0;
#X connect 13 0 12 0;
#X restore 55 49 pd gemgen;
#X obj 55 -31 tgl 15 0 empty empty empty 17 7 0 10 -262144 -1 -1 1
1;
#X obj 161 113 gemhead;
#X obj 161 81 tgl 15 0 empty empty empty 17 7 0 10 -262144 -1 -1 1
1;
#X obj 161 154 pix_video;
#X msg 106 24 400 400;
#X msg 221 137 dimen \$1 \$2;
#X obj 161 183 colorRGB 1 1 1 0.5;
#X obj 161 204 alpha;
#X obj 122 50 s dim;
#X obj 221 113 r dim;
#X obj 161 226 rotateXYZ;
#X obj 527 132 f;
#X obj 527 155 + 1;
#X floatatom 527 177 5 0 0 0 - - -;
#X obj 395 34 tgl 15 0 empty empty empty 17 7 0 10 -262144 -1 -1 1
1;
#X msg 595 176 0;
#X obj 409 91 metro 25;
#X obj 528 225 / 100;
#X obj 528 200 sel 100;
#X floatatom 525 251 5 0 0 0 - - -;
#X obj 394 132 f;
#X obj 394 155 + 1;
#X floatatom 394 177 5 0 0 0 - - -;
#X msg 462 176 0;
#X obj 395 200 sel 360;
#X obj 41 371 pix_texture;
#X obj 41 349 rotateXYZ;
#X obj 41 322 translateXYZ 0 0 0;
#X obj 41 393 cube 0.7 0.7 0.7;
#X obj 41 300 separator;
#X obj 370 283 f;
#X floatatom 370 328 5 0 0 0 - - -;
#X msg 438 327 0;
#X obj 370 306 - 1;
#X obj 371 351 sel -12;
#X obj 370 256 metro 10;
#N canvas 74 493 450 300 sat 1;
#X obj 83 136 pix_texture;
#X obj 83 63 rotateXYZ;
#X obj 83 158 cube 0.3 0.3 0.3;
#X obj 83 88 separator;
#X obj 83 113 translateXYZ 2 0 0;
#X obj 159 -7 inlet;
#X obj 159 46 +;
#X obj 204 29 * 60;
#X obj 204 -1 inlet;
#X obj 83 35 separator;
#X obj 83 4 inlet;
#X connect 0 0 2 0;
#X connect 1 0 3 0;
#X connect 3 0 4 0;
#X connect 4 0 0 0;
#X connect 5 0 6 0;
#X connect 6 0 1 2;
#X connect 7 0 6 1;
#X connect 8 0 7 0;
#X connect 9 0 1 0;
#X connect 10 0 9 0;
#X restore 207 429 pd sat;
#X msg 239 404 1;
#N canvas 104 483 450 300 sat 0;
#X obj 83 136 pix_texture;
#X obj 83 63 rotateXYZ;
#X obj 83 158 cube 0.3 0.3 0.3;
#X obj 83 88 separator;
#X obj 83 113 translateXYZ 2 0 0;
#X obj 83 -15 inlet;
#X obj 159 -14 inlet;
#X obj 159 46 +;
#X obj 204 16 * 60;
#X obj 204 -14 inlet;
#X obj 83 35 separator;
#X connect 0 0 2 0;
#X connect 1 0 3 0;
#X connect 3 0 4 0;
#X connect 4 0 0 0;
#X connect 5 0 10 0;
#X connect 6 0 7 0;
#X connect 7 0 1 2;
#X connect 8 0 7 1;
#X connect 9 0 8 0;
#X connect 10 0 1 0;
#X restore 273 455 pd sat;
#X msg 306 421 2;
#N canvas 104 483 450 300 sat 0;
#X obj 83 136 pix_texture;
#X obj 83 63 rotateXYZ;
#X obj 83 158 cube 0.3 0.3 0.3;
#X obj 83 88 separator;
#X obj 83 113 translateXYZ 2 0 0;
#X obj 83 -15 inlet;
#X obj 159 -14 inlet;
#X obj 159 46 +;
#X obj 204 16 * 60;
#X obj 204 -14 inlet;
#X obj 83 35 separator;
#X connect 0 0 2 0;
#X connect 1 0 3 0;
#X connect 3 0 4 0;
#X connect 4 0 0 0;
#X connect 5 0 10 0;
#X connect 6 0 7 0;
#X connect 7 0 1 2;
#X connect 8 0 7 1;
#X connect 9 0 8 0;
#X connect 10 0 1 0;
#X restore 331 471 pd sat;
#N canvas 104 483 450 300 sat 0;
#X obj 83 136 pix_texture;
#X obj 83 63 rotateXYZ;
#X obj 83 158 cube 0.3 0.3 0.3;
#X obj 83 88 separator;
#X obj 83 113 translateXYZ 2 0 0;
#X obj 83 -15 inlet;
#X obj 159 -14 inlet;
#X obj 159 46 +;
#X obj 204 16 * 60;
#X obj 204 -14 inlet;
#X obj 83 35 separator;
#X connect 0 0 2 0;
#X connect 1 0 3 0;
#X connect 3 0 4 0;
#X connect 4 0 0 0;
#X connect 5 0 10 0;
#X connect 6 0 7 0;
#X connect 7 0 1 2;
#X connect 8 0 7 1;
#X connect 9 0 8 0;
#X connect 10 0 1 0;
#X restore 391 472 pd sat;
#X msg 365 438 3;
#X msg 426 438 4;
#N canvas 104 483 450 300 sat 0;
#X obj 83 136 pix_texture;
#X obj 83 63 rotateXYZ;
#X obj 83 158 cube 0.3 0.3 0.3;
#X obj 83 88 separator;
#X obj 83 113 translateXYZ 2 0 0;
#X obj 83 -15 inlet;
#X obj 159 -14 inlet;
#X obj 159 46 +;
#X obj 204 16 * 60;
#X obj 204 -14 inlet;
#X obj 83 35 separator;
#X connect 0 0 2 0;
#X connect 1 0 3 0;
#X connect 3 0 4 0;
#X connect 4 0 0 0;
#X connect 5 0 10 0;
#X connect 6 0 7 0;
#X connect 7 0 1 2;
#X connect 8 0 7 1;
#X connect 9 0 8 0;
#X connect 10 0 1 0;
#X restore 443 480 pd sat;
#N canvas 104 483 450 300 sat 0;
#X obj 83 136 pix_texture;
#X obj 83 63 rotateXYZ;
#X obj 83 158 cube 0.3 0.3 0.3;
#X obj 83 88 separator;
#X obj 83 113 translateXYZ 2 0 0;
#X obj 83 -15 inlet;
#X obj 159 -14 inlet;
#X obj 159 46 +;
#X obj 204 16 * 60;
#X obj 204 -14 inlet;
#X obj 83 35 separator;
#X connect 0 0 2 0;
#X connect 1 0 3 0;
#X connect 3 0 4 0;
#X connect 4 0 0 0;
#X connect 5 0 10 0;
#X connect 6 0 7 0;
#X connect 7 0 1 2;
#X connect 8 0 7 1;
#X connect 9 0 8 0;
#X connect 10 0 1 0;
#X restore 492 488 pd sat;
#X msg 478 446 5;
#X msg 527 454 6;
#X obj 452 38 metro 700;
#X obj 488 73 random 20 50;
#X connect 2 0 0 0;
#X connect 2 1 5 0;
#X connect 2 1 17 0;
#X connect 3 0 7 0;
#X connect 3 0 2 0;
#X connect 4 0 6 0;
#X connect 5 0 4 0;
#X connect 6 0 9 0;
#X connect 7 0 2 1;
#X connect 7 0 11 0;
#X connect 8 0 6 0;
#X connect 9 0 10 0;
#X connect 10 0 13 0;
#X connect 12 0 8 0;
#X connect 13 0 32 0;
#X connect 13 0 41 0;
#X connect 13 0 43 0;
#X connect 13 0 44 0;
#X connect 13 0 47 0;
#X connect 13 0 48 0;
#X connect 13 0 39 0;
#X connect 14 0 15 0;
#X connect 15 0 14 1;
#X connect 15 0 16 0;
#X connect 16 0 21 0;
#X connect 17 0 19 0;
#X connect 17 0 38 0;
#X connect 17 0 51 0;
#X connect 18 0 14 1;
#X connect 19 0 14 0;
#X connect 19 0 23 0;
#X connect 20 0 22 0;
#X connect 21 0 18 0;
#X connect 21 1 20 0;
#X connect 23 0 24 0;
#X connect 24 0 23 1;
#X connect 24 0 25 0;
#X connect 25 0 27 0;
#X connect 25 0 13 2;
#X connect 25 0 13 1;
#X connect 26 0 23 1;
#X connect 27 0 26 0;
#X connect 27 1 13 3;
#X connect 28 0 31 0;
#X connect 29 0 28 0;
#X connect 30 0 29 0;
#X connect 32 0 30 0;
#X connect 33 0 36 0;
#X connect 34 0 37 0;
#X connect 35 0 33 1;
#X connect 36 0 33 1;
#X connect 36 0 34 0;
#X connect 37 0 35 0;
#X connect 37 1 39 1;
#X connect 37 1 48 1;
#X connect 37 1 47 1;
#X connect 37 1 44 1;
#X connect 37 1 43 1;
#X connect 37 1 41 1;
#X connect 38 0 33 0;
#X connect 40 0 39 2;
#X connect 42 0 41 2;
#X connect 45 0 43 2;
#X connect 46 0 44 2;
#X connect 49 0 47 2;
#X connect 50 0 48 2;
#X connect 51 0 52 0;
#X connect 52 0 38 1;
