#N canvas 1210 27 208 125 10;
#X text 15 -4 on/off;
#X obj 12 13 tgl 15 0 empty empty empty 17 7 0 10 -262144 -1 -1 1 1
;
#N canvas 1066 167 367 643 sonido 1;
#X obj 72 40 inlet;
#X obj 123 41 adc~;
#X obj 72 381 dac~;
#X obj 72 336 *~;
#X obj 124 369 s vol;
#X floatatom 123 120 5 0 0 0 - - -;
#X obj 123 96 env~;
#X msg 163 213 \$1;
#X floatatom 123 275 5 0 0 0 - - -;
#X obj 195 52 vsl 15 128 0.5 2 0 0 empty empty empty 0 -9 0 10 -262144
-1 -1 0 1;
#X obj 123 238 /;
#X obj 163 188 bng 15 250 50 0 empty empty empty 17 7 0 10 -262144
-1 -1;
#X floatatom 195 188 5 0 0 0 - - -;
#X obj 123 306 / 100;
#X floatatom 154 338 5 0 0 0 - - -;
#X connect 1 0 6 0;
#X connect 1 1 6 0;
#X connect 3 0 2 0;
#X connect 3 0 2 1;
#X connect 5 0 10 0;
#X connect 6 0 5 0;
#X connect 7 0 10 1;
#X connect 8 0 13 0;
#X connect 9 0 11 0;
#X connect 9 0 12 0;
#X connect 10 0 8 0;
#X connect 11 0 7 0;
#X connect 12 0 7 0;
#X connect 13 0 4 0;
#X connect 13 0 14 0;
#X restore 84 85 pd sonido;
#N canvas 416 167 646 648 imagen 1;
#X obj 33 24 inlet;
#X obj 33 171 gemwin;
#N canvas 8 469 384 339 gemgen 1;
#X obj 329 220 tgl 15 0 empty empty empty 17 7 0 10 -262144 -1 -1 1
1;
#X msg 89 219 create;
#X obj 89 38 inlet;
#X obj 89 271 outlet;
#X obj 89 84 select 0 1;
#X msg 224 218 destroy;
#X obj 89 104 bng 15 250 50 0 empty empty empty 17 7 0 10 -262144 -1
-1;
#X obj 117 104 bng 15 250 50 0 empty empty empty 17 7 0 10 -262144
-1 -1;
#X obj 146 271 outlet;
#X obj 89 181 t b b b b;
#X obj 224 181 t b b b;
#X obj 185 38 inlet;
#X msg 142 219 dimen \$1 \$2;
#X obj 202 63 bng 15 250 50 0 empty empty empty 17 7 0 10 -262144 -1
-1;
#X connect 0 0 3 0;
#X connect 1 0 3 0;
#X connect 2 0 4 0;
#X connect 4 0 6 0;
#X connect 4 1 7 0;
#X connect 5 0 3 0;
#X connect 6 0 10 0;
#X connect 7 0 9 0;
#X connect 9 0 0 0;
#X connect 9 1 8 0;
#X connect 9 2 12 0;
#X connect 9 3 1 0;
#X connect 10 0 5 0;
#X connect 10 1 8 0;
#X connect 10 2 0 0;
#X connect 11 0 12 0;
#X connect 11 0 13 0;
#X connect 12 0 3 0;
#X restore 33 115 pd gemgen;
#X obj 139 179 gemhead;
#X obj 139 147 tgl 15 0 empty empty empty 17 7 0 10 -262144 -1 -1 1
1;
#X obj 139 220 pix_video;
#X msg 84 78 400 400;
#X msg 199 203 dimen \$1 \$2;
#X obj 139 249 colorRGB 1 1 1 0.5;
#X obj 139 270 alpha;
#X obj 98 105 s dim;
#X obj 199 179 r dim;
#X obj 139 292 rotateXYZ;
#X obj 505 198 f;
#X obj 505 221 + 1;
#X floatatom 505 243 5 0 0 0 - - -;
#X obj 372 102 tgl 15 0 empty empty empty 17 7 0 10 -262144 -1 -1 1
1;
#X msg 573 242 0;
#X obj 372 159 metro 25;
#X obj 506 291 / 100;
#X obj 506 266 sel 100;
#X floatatom 503 317 5 0 0 0 - - -;
#X obj 372 198 f;
#X obj 372 221 + 1;
#X floatatom 372 243 5 0 0 0 - - -;
#X msg 440 242 0;
#X obj 373 266 sel 360;
#X obj 19 407 pix_texture;
#X obj 19 385 rotateXYZ;
#X obj 19 358 translateXYZ 0 0 0;
#X obj 19 483 cube 0.7 0.7 0.7;
#X obj 19 336 separator;
#X obj 348 349 f;
#X floatatom 348 394 5 0 0 0 - - -;
#X msg 416 393 0;
#X obj 348 372 - 1;
#X obj 348 322 metro 10;
#N canvas 20 486 450 300 sat 1;
#X obj 83 136 pix_texture;
#X obj 83 63 rotateXYZ;
#X obj 83 158 cube 0.3 0.3 0.3;
#X obj 83 88 separator;
#X obj 83 113 translateXYZ 2 0 0;
#X obj 159 -7 inlet;
#X obj 159 46 +;
#X obj 204 29 * 60;
#X obj 204 -1 inlet;
#X obj 83 35 separator;
#X obj 83 4 inlet;
#X connect 0 0 2 0;
#X connect 1 0 3 0;
#X connect 3 0 4 0;
#X connect 4 0 0 0;
#X connect 5 0 6 0;
#X connect 6 0 1 2;
#X connect 7 0 6 1;
#X connect 8 0 7 0;
#X connect 9 0 1 0;
#X connect 10 0 9 0;
#X restore 185 495 pd sat;
#X msg 217 470 1;
#N canvas 104 483 450 300 sat 0;
#X obj 83 136 pix_texture;
#X obj 83 63 rotateXYZ;
#X obj 83 158 cube 0.3 0.3 0.3;
#X obj 83 88 separator;
#X obj 83 113 translateXYZ 2 0 0;
#X obj 83 -15 inlet;
#X obj 159 -14 inlet;
#X obj 159 46 +;
#X obj 204 16 * 60;
#X obj 204 -14 inlet;
#X obj 83 35 separator;
#X connect 0 0 2 0;
#X connect 1 0 3 0;
#X connect 3 0 4 0;
#X connect 4 0 0 0;
#X connect 5 0 10 0;
#X connect 6 0 7 0;
#X connect 7 0 1 2;
#X connect 8 0 7 1;
#X connect 9 0 8 0;
#X connect 10 0 1 0;
#X restore 251 521 pd sat;
#X msg 284 487 2;
#N canvas 104 483 450 300 sat 0;
#X obj 83 136 pix_texture;
#X obj 83 63 rotateXYZ;
#X obj 83 158 cube 0.3 0.3 0.3;
#X obj 83 88 separator;
#X obj 83 113 translateXYZ 2 0 0;
#X obj 83 -15 inlet;
#X obj 159 -14 inlet;
#X obj 159 46 +;
#X obj 204 16 * 60;
#X obj 204 -14 inlet;
#X obj 83 35 separator;
#X connect 0 0 2 0;
#X connect 1 0 3 0;
#X connect 3 0 4 0;
#X connect 4 0 0 0;
#X connect 5 0 10 0;
#X connect 6 0 7 0;
#X connect 7 0 1 2;
#X connect 8 0 7 1;
#X connect 9 0 8 0;
#X connect 10 0 1 0;
#X restore 309 537 pd sat;
#N canvas 104 483 450 300 sat 0;
#X obj 83 136 pix_texture;
#X obj 83 63 rotateXYZ;
#X obj 83 158 cube 0.3 0.3 0.3;
#X obj 83 88 separator;
#X obj 83 113 translateXYZ 2 0 0;
#X obj 83 -15 inlet;
#X obj 159 -14 inlet;
#X obj 159 46 +;
#X obj 204 16 * 60;
#X obj 204 -14 inlet;
#X obj 83 35 separator;
#X connect 0 0 2 0;
#X connect 1 0 3 0;
#X connect 3 0 4 0;
#X connect 4 0 0 0;
#X connect 5 0 10 0;
#X connect 6 0 7 0;
#X connect 7 0 1 2;
#X connect 8 0 7 1;
#X connect 9 0 8 0;
#X connect 10 0 1 0;
#X restore 369 538 pd sat;
#X msg 343 504 3;
#X msg 404 504 4;
#N canvas 104 483 450 300 sat 0;
#X obj 83 136 pix_texture;
#X obj 83 63 rotateXYZ;
#X obj 83 158 cube 0.3 0.3 0.3;
#X obj 83 88 separator;
#X obj 83 113 translateXYZ 2 0 0;
#X obj 83 -15 inlet;
#X obj 159 -14 inlet;
#X obj 159 46 +;
#X obj 204 16 * 60;
#X obj 204 -14 inlet;
#X obj 83 35 separator;
#X connect 0 0 2 0;
#X connect 1 0 3 0;
#X connect 3 0 4 0;
#X connect 4 0 0 0;
#X connect 5 0 10 0;
#X connect 6 0 7 0;
#X connect 7 0 1 2;
#X connect 8 0 7 1;
#X connect 9 0 8 0;
#X connect 10 0 1 0;
#X restore 421 546 pd sat;
#N canvas 104 483 450 300 sat 0;
#X obj 83 136 pix_texture;
#X obj 83 63 rotateXYZ;
#X obj 83 158 cube 0.3 0.3 0.3;
#X obj 83 88 separator;
#X obj 83 113 translateXYZ 2 0 0;
#X obj 83 -15 inlet;
#X obj 159 -14 inlet;
#X obj 159 46 +;
#X obj 204 16 * 60;
#X obj 204 -14 inlet;
#X obj 83 35 separator;
#X connect 0 0 2 0;
#X connect 1 0 3 0;
#X connect 3 0 4 0;
#X connect 4 0 0 0;
#X connect 5 0 10 0;
#X connect 6 0 7 0;
#X connect 7 0 1 2;
#X connect 8 0 7 1;
#X connect 9 0 8 0;
#X connect 10 0 1 0;
#X restore 470 554 pd sat;
#X msg 456 512 5;
#X msg 505 520 6;
#X obj 446 147 random 20;
#X obj 420 305 + 10;
#X obj 112 436 r vol;
#X msg 112 460 \$1 \$1 \$1;
#X obj 33 46 t a a;
#X obj 446 125 metro 1500;
#X obj 349 417 sel -360;
#X connect 0 0 53 0;
#X connect 2 0 1 0;
#X connect 2 1 4 0;
#X connect 2 1 16 0;
#X connect 3 0 5 0;
#X connect 4 0 3 0;
#X connect 5 0 8 0;
#X connect 6 0 2 1;
#X connect 6 0 10 0;
#X connect 7 0 5 0;
#X connect 8 0 9 0;
#X connect 9 0 12 0;
#X connect 11 0 7 0;
#X connect 12 0 31 0;
#X connect 12 0 39 0;
#X connect 12 0 41 0;
#X connect 12 0 42 0;
#X connect 12 0 45 0;
#X connect 12 0 46 0;
#X connect 12 0 37 0;
#X connect 13 0 14 0;
#X connect 14 0 13 1;
#X connect 14 0 15 0;
#X connect 15 0 20 0;
#X connect 16 0 18 0;
#X connect 16 0 36 0;
#X connect 16 0 54 0;
#X connect 17 0 13 1;
#X connect 18 0 13 0;
#X connect 18 0 22 0;
#X connect 19 0 21 0;
#X connect 20 0 17 0;
#X connect 20 1 19 0;
#X connect 22 0 23 0;
#X connect 23 0 22 1;
#X connect 23 0 24 0;
#X connect 24 0 26 0;
#X connect 24 0 12 2;
#X connect 24 0 12 1;
#X connect 25 0 22 1;
#X connect 26 0 25 0;
#X connect 26 1 12 3;
#X connect 27 0 30 0;
#X connect 28 0 27 0;
#X connect 29 0 28 0;
#X connect 31 0 29 0;
#X connect 32 0 35 0;
#X connect 33 0 55 0;
#X connect 34 0 32 1;
#X connect 35 0 32 1;
#X connect 35 0 33 0;
#X connect 36 0 32 0;
#X connect 38 0 37 2;
#X connect 40 0 39 2;
#X connect 43 0 41 2;
#X connect 44 0 42 2;
#X connect 47 0 45 2;
#X connect 48 0 46 2;
#X connect 49 0 50 0;
#X connect 50 0 36 1;
#X connect 51 0 52 0;
#X connect 52 0 30 1;
#X connect 53 0 2 0;
#X connect 53 1 6 0;
#X connect 54 0 49 0;
#X connect 55 0 34 0;
#X connect 55 1 37 1;
#X connect 55 1 46 1;
#X connect 55 1 45 1;
#X connect 55 1 42 1;
#X connect 55 1 41 1;
#X connect 55 1 39 1;
#X restore 12 84 pd imagen;
#X connect 1 0 3 0;
