#N canvas 1210 27 208 125 10;
#X text 15 -4 on/off;
#X obj 12 13 tgl 15 0 empty empty empty 17 7 0 10 -262144 -1 -1 1 1
;
#N canvas 1037 116 390 640 sonido 1;
#X obj 233 54 inlet;
#X obj 84 73 adc~;
#X obj 41 280 dac~;
#X obj 41 235 *~;
#X obj 250 296 s vol;
#X floatatom 249 137 5 0 0 0 - - -;
#X obj 249 113 env~;
#X msg 309 148 \$1;
#X floatatom 249 202 5 0 0 0 - - -;
#X obj 341 41 vsl 15 70 0.5 2 0 1 empty empty empty 0 -9 0 10 -262144
-1 -1 1900 1;
#X obj 309 123 bng 15 250 50 0 empty empty empty 17 7 0 10 -262144
-1 -1;
#X floatatom 341 123 5 0 0 0 - - -;
#X obj 249 233 / 100;
#X floatatom 280 265 5 0 0 0 - - -;
#X obj 84 135 s~ inputL;
#X obj 105 158 s~ inputR;
#X obj 41 210 r~ outputL;
#X obj 56 187 r~ outputR;
#X obj 249 165 *;
#X obj 115 111 s~ inputMono;
#X obj 249 88 r~ inputMono;
#X obj 31 372 r~ inputMono;
#X obj 38 405 vsl 15 70 10 20000 0 1 empty empty empty 0 -9 0 10 -262144
-1 -1 6200 1;
#X obj 57 405 vsl 15 70 10 20000 0 1 empty empty empty 0 -9 0 10 -262144
-1 -1 1700 1;
#X obj 31 593 s bp1;
#X floatatom 31 572 5 0 0 0 - - -;
#X obj 31 551 env~;
#X obj 120 527 bp~;
#X obj 120 371 r~ inputMono;
#X obj 127 404 vsl 15 70 10 20000 0 1 empty empty empty 0 -9 0 10 -262144
-1 -1 2000 1;
#X obj 146 404 vsl 15 70 10 20000 0 1 empty empty empty 0 -9 0 10 -262144
-1 -1 5900 1;
#X floatatom 120 571 5 0 0 0 - - -;
#X obj 120 550 env~;
#X obj 120 592 s bp2;
#X floatatom 127 482 10 0 0 0 - - -;
#X floatatom 146 502 10 0 0 0 - - -;
#X floatatom 38 483 10 0 0 0 - - -;
#X floatatom 57 503 10 0 0 0 - - -;
#X obj 17 164 r~ outputMono;
#X obj 258 482 *~;
#X obj 305 408 vsl 15 70 0.01 1 0 1 empty empty empty 0 -9 0 10 -262144
-1 -1 800 1;
#X obj 258 421 osc~ 100;
#X obj 258 517 s~ outputMono;
#X obj 255 339 vsl 15 70 10 20000 0 1 empty empty empty 0 -9 0 10 -262144
-1 -1 200 1;
#X obj 31 528 bp~;
#X connect 1 0 14 0;
#X connect 1 0 19 0;
#X connect 1 1 15 0;
#X connect 1 1 19 0;
#X connect 3 0 2 0;
#X connect 3 0 2 1;
#X connect 5 0 18 0;
#X connect 6 0 5 0;
#X connect 7 0 18 1;
#X connect 8 0 12 0;
#X connect 9 0 10 0;
#X connect 9 0 11 0;
#X connect 10 0 7 0;
#X connect 11 0 7 0;
#X connect 12 0 4 0;
#X connect 12 0 13 0;
#X connect 16 0 3 0;
#X connect 17 0 3 1;
#X connect 18 0 8 0;
#X connect 20 0 6 0;
#X connect 21 0 44 0;
#X connect 22 0 36 0;
#X connect 23 0 37 0;
#X connect 25 0 24 0;
#X connect 26 0 25 0;
#X connect 27 0 32 0;
#X connect 28 0 27 0;
#X connect 29 0 34 0;
#X connect 30 0 35 0;
#X connect 31 0 33 0;
#X connect 32 0 31 0;
#X connect 34 0 27 1;
#X connect 35 0 27 2;
#X connect 36 0 44 1;
#X connect 37 0 44 2;
#X connect 38 0 3 0;
#X connect 38 0 3 1;
#X connect 40 0 39 1;
#X connect 41 0 39 0;
#X connect 43 0 41 0;
#X connect 44 0 26 0;
#X restore 84 85 pd sonido;
#N canvas 434 100 603 603 imagen 1;
#X obj 33 24 inlet;
#X obj 33 171 gemwin;
#N canvas 8 469 384 339 gemgen 1;
#X obj 329 220 tgl 15 0 empty empty empty 17 7 0 10 -262144 -1 -1 1
1;
#X msg 89 219 create;
#X obj 89 38 inlet;
#X obj 89 271 outlet;
#X obj 89 84 select 0 1;
#X msg 224 218 destroy;
#X obj 89 104 bng 15 250 50 0 empty empty empty 17 7 0 10 -262144 -1
-1;
#X obj 117 104 bng 15 250 50 0 empty empty empty 17 7 0 10 -262144
-1 -1;
#X obj 146 271 outlet;
#X obj 89 181 t b b b b;
#X obj 224 181 t b b b;
#X obj 185 38 inlet;
#X msg 142 219 dimen \$1 \$2;
#X obj 202 63 bng 15 250 50 0 empty empty empty 17 7 0 10 -262144 -1
-1;
#X connect 0 0 3 0;
#X connect 1 0 3 0;
#X connect 2 0 4 0;
#X connect 4 0 6 0;
#X connect 4 1 7 0;
#X connect 5 0 3 0;
#X connect 6 0 10 0;
#X connect 7 0 9 0;
#X connect 9 0 0 0;
#X connect 9 1 8 0;
#X connect 9 2 12 0;
#X connect 9 3 1 0;
#X connect 10 0 5 0;
#X connect 10 1 8 0;
#X connect 10 2 0 0;
#X connect 11 0 12 0;
#X connect 11 0 13 0;
#X connect 12 0 3 0;
#X restore 33 115 pd gemgen;
#X obj 139 179 gemhead;
#X obj 139 147 tgl 15 0 empty empty empty 17 7 0 10 -262144 -1 -1 1
1;
#X obj 19 626 pix_video;
#X msg 84 78 400 400;
#X obj 139 270 alpha;
#X obj 98 105 s dim;
#X obj 139 292 rotateXYZ;
#X obj 505 198 f;
#X obj 505 221 + 1;
#X floatatom 505 243 5 0 0 0 - - -;
#X obj 372 102 tgl 15 0 empty empty empty 17 7 0 10 -262144 -1 -1 1
1;
#X msg 573 242 0;
#X obj 372 159 metro 25;
#X obj 506 291 / 100;
#X obj 506 266 sel 100;
#X floatatom 503 317 5 0 0 0 - - -;
#X obj 372 198 f;
#X obj 372 221 + 1;
#X floatatom 372 243 5 0 0 0 - - -;
#X msg 440 242 0;
#X obj 373 266 sel 360;
#X obj 19 667 pix_texture;
#X obj 19 368 translateXYZ 0 0 0;
#X obj 19 701 cube 0.7 0.7 0.7;
#X obj 19 346 separator;
#X obj 348 349 f;
#X floatatom 348 394 5 0 0 0 - - -;
#X msg 416 393 0;
#X obj 348 372 - 1;
#X obj 348 322 metro 10;
#N canvas 101 471 341 317 sat 0;
#X obj 83 316 pix_texture;
#X obj 83 63 rotateXYZ;
#X obj 83 338 cube 0.3 0.3 0.3;
#X obj 83 113 translateXYZ 2 0 0;
#X obj 159 36 +;
#X obj 204 19 * 60;
#X obj 204 -11 inlet;
#X obj 83 35 separator;
#X obj 83 4 inlet;
#X obj 159 -6 r rot1;
#X obj 145 142 r bp1;
#X obj 145 163 / 100;
#X floatatom 145 259 5 0 0 0 - - -;
#X obj 145 185 t b f;
#X obj 182 163 / 100;
#X floatatom 182 259 5 0 0 0 - - -;
#X obj 182 185 t b f;
#X obj 182 142 r bp2;
#X msg 145 212 1;
#X msg 182 212 1;
#X obj 182 237 -;
#X obj 145 237 -;
#X obj 83 284 colorRGB 1 1 1 0.3;
#X floatatom 109 259 5 0 0 0 - - -;
#X connect 0 0 2 0;
#X connect 1 0 3 0;
#X connect 3 0 22 0;
#X connect 4 0 1 2;
#X connect 5 0 4 1;
#X connect 6 0 5 0;
#X connect 7 0 1 0;
#X connect 8 0 7 0;
#X connect 9 0 4 0;
#X connect 10 0 11 0;
#X connect 11 0 13 0;
#X connect 12 0 22 2;
#X connect 13 0 18 0;
#X connect 13 1 21 1;
#X connect 14 0 16 0;
#X connect 15 0 22 3;
#X connect 16 0 19 0;
#X connect 16 1 20 1;
#X connect 17 0 14 0;
#X connect 18 0 21 0;
#X connect 19 0 20 0;
#X connect 20 0 15 0;
#X connect 21 0 12 0;
#X connect 22 0 0 0;
#X connect 23 0 22 1;
#X restore 204 543 pd sat;
#X msg 304 518 2;
#X msg 366 518 3;
#X msg 434 518 4;
#X msg 493 518 5;
#X msg 555 518 6;
#X obj 446 147 random 20;
#X obj 420 305 + 10;
#X obj 112 654 r vol;
#X msg 112 678 \$1 \$1 \$1;
#X obj 33 46 t a a;
#X obj 446 125 metro 1500;
#X obj 349 417 sel -360;
#X msg 364 20 \; pd dsp 0;
#X msg 441 20 \; pd dsp 1;
#X msg 237 518 1;
#X obj 394 440 s rot1;
#X obj 42 414 / 100;
#X floatatom 42 510 5 0 0 0 - - -;
#X obj 42 436 t b f;
#X msg 42 463 1;
#X obj 42 488 -;
#X obj 19 561 alpha;
#X obj 19 540 colorRGB 1 1 1 1;
#X obj 106 560 r rot2;
#X obj 19 583 rotateXYZ 1 1 1;
#N canvas 101 471 341 317 sat 0;
#X obj 83 316 pix_texture;
#X obj 83 63 rotateXYZ;
#X obj 83 338 cube 0.3 0.3 0.3;
#X obj 83 113 translateXYZ 2 0 0;
#X obj 159 36 +;
#X obj 204 19 * 60;
#X obj 204 -11 inlet;
#X obj 83 35 separator;
#X obj 83 4 inlet;
#X obj 159 -6 r rot1;
#X obj 145 142 r bp1;
#X obj 145 163 / 100;
#X floatatom 145 259 5 0 0 0 - - -;
#X obj 145 185 t b f;
#X obj 182 163 / 100;
#X floatatom 182 259 5 0 0 0 - - -;
#X obj 182 185 t b f;
#X obj 182 142 r bp2;
#X msg 145 212 1;
#X msg 182 212 1;
#X obj 182 237 -;
#X obj 145 237 -;
#X obj 83 284 colorRGB 1 1 1 0.3;
#X floatatom 109 259 5 0 0 0 - - -;
#X floatatom 241 225 5 0 0 0 - - -;
#X connect 0 0 2 0;
#X connect 1 0 3 0;
#X connect 3 0 22 0;
#X connect 4 0 1 2;
#X connect 5 0 4 1;
#X connect 6 0 5 0;
#X connect 7 0 1 0;
#X connect 8 0 7 0;
#X connect 9 0 4 0;
#X connect 10 0 11 0;
#X connect 11 0 13 0;
#X connect 12 0 22 2;
#X connect 13 0 18 0;
#X connect 13 1 21 1;
#X connect 14 0 16 0;
#X connect 15 0 22 3;
#X connect 16 0 19 0;
#X connect 16 1 20 1;
#X connect 17 0 14 0;
#X connect 18 0 21 0;
#X connect 19 0 20 0;
#X connect 20 0 15 0;
#X connect 21 0 12 0;
#X connect 22 0 0 0;
#X connect 23 0 22 1;
#X connect 24 0 22 4;
#X restore 271 543 pd sat;
#N canvas 101 471 341 317 sat 0;
#X obj 83 316 pix_texture;
#X obj 83 63 rotateXYZ;
#X obj 83 338 cube 0.3 0.3 0.3;
#X obj 83 113 translateXYZ 2 0 0;
#X obj 159 36 +;
#X obj 204 19 * 60;
#X obj 204 -11 inlet;
#X obj 83 35 separator;
#X obj 83 4 inlet;
#X obj 159 -6 r rot1;
#X obj 145 142 r bp1;
#X obj 145 163 / 100;
#X floatatom 145 259 5 0 0 0 - - -;
#X obj 145 185 t b f;
#X obj 182 163 / 100;
#X floatatom 182 259 5 0 0 0 - - -;
#X obj 182 185 t b f;
#X obj 182 142 r bp2;
#X msg 145 212 1;
#X msg 182 212 1;
#X obj 182 237 -;
#X obj 145 237 -;
#X obj 83 284 colorRGB 1 1 1 0.3;
#X floatatom 109 259 5 0 0 0 - - -;
#X floatatom 241 225 5 0 0 0 - - -;
#X connect 0 0 2 0;
#X connect 1 0 3 0;
#X connect 3 0 22 0;
#X connect 4 0 1 2;
#X connect 5 0 4 1;
#X connect 6 0 5 0;
#X connect 7 0 1 0;
#X connect 8 0 7 0;
#X connect 9 0 4 0;
#X connect 10 0 11 0;
#X connect 11 0 13 0;
#X connect 12 0 22 2;
#X connect 13 0 18 0;
#X connect 13 1 21 1;
#X connect 14 0 16 0;
#X connect 15 0 22 3;
#X connect 16 0 19 0;
#X connect 16 1 20 1;
#X connect 17 0 14 0;
#X connect 18 0 21 0;
#X connect 19 0 20 0;
#X connect 20 0 15 0;
#X connect 21 0 12 0;
#X connect 22 0 0 0;
#X connect 23 0 22 1;
#X connect 24 0 22 4;
#X restore 333 541 pd sat;
#N canvas 101 471 341 317 sat 0;
#X obj 83 316 pix_texture;
#X obj 83 63 rotateXYZ;
#X obj 83 338 cube 0.3 0.3 0.3;
#X obj 83 113 translateXYZ 2 0 0;
#X obj 159 36 +;
#X obj 204 19 * 60;
#X obj 204 -11 inlet;
#X obj 83 35 separator;
#X obj 83 4 inlet;
#X obj 159 -6 r rot1;
#X obj 145 142 r bp1;
#X obj 145 163 / 100;
#X floatatom 145 259 5 0 0 0 - - -;
#X obj 145 185 t b f;
#X obj 182 163 / 100;
#X floatatom 182 259 5 0 0 0 - - -;
#X obj 182 185 t b f;
#X obj 182 142 r bp2;
#X msg 145 212 1;
#X msg 182 212 1;
#X obj 182 237 -;
#X obj 145 237 -;
#X obj 83 284 colorRGB 1 1 1 0.3;
#X floatatom 109 259 5 0 0 0 - - -;
#X floatatom 241 225 5 0 0 0 - - -;
#X connect 0 0 2 0;
#X connect 1 0 3 0;
#X connect 3 0 22 0;
#X connect 4 0 1 2;
#X connect 5 0 4 1;
#X connect 6 0 5 0;
#X connect 7 0 1 0;
#X connect 8 0 7 0;
#X connect 9 0 4 0;
#X connect 10 0 11 0;
#X connect 11 0 13 0;
#X connect 12 0 22 2;
#X connect 13 0 18 0;
#X connect 13 1 21 1;
#X connect 14 0 16 0;
#X connect 15 0 22 3;
#X connect 16 0 19 0;
#X connect 16 1 20 1;
#X connect 17 0 14 0;
#X connect 18 0 21 0;
#X connect 19 0 20 0;
#X connect 20 0 15 0;
#X connect 21 0 12 0;
#X connect 22 0 0 0;
#X connect 23 0 22 1;
#X connect 24 0 22 4;
#X restore 400 541 pd sat;
#N canvas 101 471 341 317 sat 0;
#X obj 83 316 pix_texture;
#X obj 83 63 rotateXYZ;
#X obj 83 338 cube 0.3 0.3 0.3;
#X obj 83 113 translateXYZ 2 0 0;
#X obj 159 36 +;
#X obj 204 19 * 60;
#X obj 204 -11 inlet;
#X obj 83 35 separator;
#X obj 83 4 inlet;
#X obj 159 -6 r rot1;
#X obj 145 142 r bp1;
#X obj 145 163 / 100;
#X floatatom 145 259 5 0 0 0 - - -;
#X obj 145 185 t b f;
#X obj 182 163 / 100;
#X floatatom 182 259 5 0 0 0 - - -;
#X obj 182 185 t b f;
#X obj 182 142 r bp2;
#X msg 145 212 1;
#X msg 182 212 1;
#X obj 182 237 -;
#X obj 145 237 -;
#X obj 83 284 colorRGB 1 1 1 0.3;
#X floatatom 109 259 5 0 0 0 - - -;
#X floatatom 241 225 5 0 0 0 - - -;
#X connect 0 0 2 0;
#X connect 1 0 3 0;
#X connect 3 0 22 0;
#X connect 4 0 1 2;
#X connect 5 0 4 1;
#X connect 6 0 5 0;
#X connect 7 0 1 0;
#X connect 8 0 7 0;
#X connect 9 0 4 0;
#X connect 10 0 11 0;
#X connect 11 0 13 0;
#X connect 12 0 22 2;
#X connect 13 0 18 0;
#X connect 13 1 21 1;
#X connect 14 0 16 0;
#X connect 15 0 22 3;
#X connect 16 0 19 0;
#X connect 16 1 20 1;
#X connect 17 0 14 0;
#X connect 18 0 21 0;
#X connect 19 0 20 0;
#X connect 20 0 15 0;
#X connect 21 0 12 0;
#X connect 22 0 0 0;
#X connect 23 0 22 1;
#X connect 24 0 22 4;
#X restore 456 541 pd sat;
#N canvas 101 471 341 317 sat 0;
#X obj 83 316 pix_texture;
#X obj 83 63 rotateXYZ;
#X obj 83 338 cube 0.3 0.3 0.3;
#X obj 83 113 translateXYZ 2 0 0;
#X obj 159 36 +;
#X obj 204 19 * 60;
#X obj 204 -11 inlet;
#X obj 83 35 separator;
#X obj 83 4 inlet;
#X obj 159 -6 r rot1;
#X obj 145 142 r bp1;
#X obj 145 163 / 100;
#X floatatom 145 259 5 0 0 0 - - -;
#X obj 145 185 t b f;
#X obj 182 163 / 100;
#X floatatom 182 259 5 0 0 0 - - -;
#X obj 182 185 t b f;
#X obj 182 142 r bp2;
#X msg 145 212 1;
#X msg 182 212 1;
#X obj 182 237 -;
#X obj 145 237 -;
#X obj 83 284 colorRGB 1 1 1 0.3;
#X floatatom 109 259 5 0 0 0 - - -;
#X floatatom 241 225 5 0 0 0 - - -;
#X connect 0 0 2 0;
#X connect 1 0 3 0;
#X connect 3 0 22 0;
#X connect 4 0 1 2;
#X connect 5 0 4 1;
#X connect 6 0 5 0;
#X connect 7 0 1 0;
#X connect 8 0 7 0;
#X connect 9 0 4 0;
#X connect 10 0 11 0;
#X connect 11 0 13 0;
#X connect 12 0 22 2;
#X connect 13 0 18 0;
#X connect 13 1 21 1;
#X connect 14 0 16 0;
#X connect 15 0 22 3;
#X connect 16 0 19 0;
#X connect 16 1 20 1;
#X connect 17 0 14 0;
#X connect 18 0 21 0;
#X connect 19 0 20 0;
#X connect 20 0 15 0;
#X connect 21 0 12 0;
#X connect 22 0 0 0;
#X connect 23 0 22 1;
#X connect 24 0 22 4;
#X restore 523 541 pd sat;
#X obj 88 415 / 100;
#X floatatom 88 511 5 0 0 0 - - -;
#X obj 88 437 t b f;
#X obj 88 394 r bp2;
#X msg 88 464 1;
#X obj 88 489 -;
#X obj 42 393 r bp1;
#X connect 0 0 43 0;
#X connect 2 0 1 0;
#X connect 2 1 4 0;
#X connect 2 1 13 0;
#X connect 3 0 7 0;
#X connect 4 0 3 0;
#X connect 5 0 24 0;
#X connect 6 0 2 1;
#X connect 6 0 8 0;
#X connect 7 0 9 0;
#X connect 9 0 33 0;
#X connect 9 0 59 0;
#X connect 9 0 60 0;
#X connect 9 0 61 0;
#X connect 9 0 62 0;
#X connect 9 0 63 0;
#X connect 9 0 27 0;
#X connect 10 0 11 0;
#X connect 11 0 10 1;
#X connect 11 0 12 0;
#X connect 12 0 17 0;
#X connect 13 0 15 0;
#X connect 13 0 32 0;
#X connect 13 0 44 0;
#X connect 14 0 10 1;
#X connect 15 0 10 0;
#X connect 15 0 19 0;
#X connect 16 0 18 0;
#X connect 17 0 14 0;
#X connect 17 1 16 0;
#X connect 19 0 20 0;
#X connect 20 0 19 1;
#X connect 20 0 21 0;
#X connect 21 0 23 0;
#X connect 21 0 9 2;
#X connect 21 0 9 1;
#X connect 22 0 19 1;
#X connect 23 0 22 0;
#X connect 23 1 9 3;
#X connect 24 0 26 0;
#X connect 25 0 56 0;
#X connect 27 0 25 0;
#X connect 28 0 31 0;
#X connect 29 0 45 0;
#X connect 30 0 28 1;
#X connect 31 0 28 1;
#X connect 31 0 29 0;
#X connect 32 0 28 0;
#X connect 34 0 59 1;
#X connect 35 0 60 1;
#X connect 36 0 61 1;
#X connect 37 0 62 1;
#X connect 38 0 63 1;
#X connect 39 0 40 0;
#X connect 40 0 32 1;
#X connect 41 0 42 0;
#X connect 42 0 26 1;
#X connect 43 0 2 0;
#X connect 43 1 6 0;
#X connect 44 0 39 0;
#X connect 45 0 30 0;
#X connect 45 1 49 0;
#X connect 48 0 33 1;
#X connect 50 0 52 0;
#X connect 51 0 56 1;
#X connect 52 0 53 0;
#X connect 52 1 54 1;
#X connect 53 0 54 0;
#X connect 54 0 51 0;
#X connect 55 0 58 0;
#X connect 56 0 55 0;
#X connect 57 0 58 1;
#X connect 57 0 58 2;
#X connect 57 0 58 3;
#X connect 58 0 5 0;
#X connect 64 0 66 0;
#X connect 65 0 56 2;
#X connect 66 0 68 0;
#X connect 66 1 69 1;
#X connect 67 0 64 0;
#X connect 68 0 69 0;
#X connect 69 0 65 0;
#X connect 70 0 50 0;
#X restore 12 84 pd imagen;
#X connect 1 0 3 0;
