#N canvas 590 38 501 526 10;
#X floatatom -65 116 5 0 0 0 - - -;
#X floatatom -42 136 5 0 0 0 - - -;
#X floatatom -19 116 5 0 0 0 - - -;
#X floatatom 4 136 5 0 0 0 - - -;
#X floatatom 99 116 5 0 0 0 - - -;
#X floatatom 122 136 5 0 0 0 - - -;
#X floatatom 145 116 5 0 0 0 - - -;
#X floatatom 168 136 5 0 0 0 - - -;
#X msg 99 42 ERROR;
#X obj 142 42 print;
#X obj 64 279 osc~ 10;
#X obj 62 456 *~;
#X msg 357 73 \; pd dsp 1 \;;
#X msg 357 107 \; pd dsp 0 \;;
#X floatatom 64 260 5 0 0 0 - - -;
#X obj 125 279 osc~ 10;
#X floatatom 125 260 5 0 0 0 - - -;
#X obj 64 308 +~;
#X obj -42 349 osc~ 10;
#X floatatom -42 330 5 0 0 0 - - -;
#X obj 24 395 *~;
#X obj 24 352 *~;
#X obj 125 241 * 7;
#X obj 64 241 * 7;
#X obj 218 318 line;
#X obj 218 230 t b a;
#X obj 218 293 unpack f i;
#X obj 218 251 delay 700;
#X msg 218 210 0 500;
#X obj -42 311 * 1;
#X msg 218 272 0.9 1500;
#X obj 93 456 *~;
#X obj 168 399 *~;
#X obj 168 352 *~;
#X obj 125 308 +~;
#X obj 69 480 dac~;
#X obj 357 44 loadbang;
#X obj -65 19 dumpOSC 12001;
#X obj -65 42 OSCroute /r /s /state;
#X obj 278 118 bng 15 250 50 0 empty empty empty 17 7 0 10 -262144
-1 -1;
#X obj 306 117 bng 15 250 50 0 empty empty empty 17 7 0 10 -262144
-1 -1;
#X obj 269 140 s on;
#X obj 297 140 s off;
#X obj 309 321 r on;
#X obj 365 321 r off;
#X obj 325 413 line;
#X obj 325 385 unpack f i;
#X msg 365 345 0 3000;
#X msg 309 345 0.9 500;
#X symbolatom 28 116 10 0 0 0 - - -;
#X obj -65 92 unpack i i i i s;
#X obj 99 92 unpack i i i i s;
#X symbolatom 192 116 10 0 0 0 - - -;
#X obj 268 172 tgl 15 0 empty empty empty 17 7 0 10 -262144 -1 -1 0
1;
#X obj 269 94 select 1 0;
#X obj 297 171 tgl 15 0 empty empty empty 17 7 0 10 -262144 -1 -1 1
1;
#X connect 1 0 29 0;
#X connect 2 0 23 0;
#X connect 3 0 22 0;
#X connect 5 0 29 0;
#X connect 6 0 23 0;
#X connect 7 0 22 0;
#X connect 8 0 9 0;
#X connect 10 0 17 0;
#X connect 11 0 35 0;
#X connect 14 0 10 0;
#X connect 15 0 34 0;
#X connect 16 0 15 0;
#X connect 17 0 21 0;
#X connect 18 0 20 1;
#X connect 18 0 32 1;
#X connect 19 0 18 0;
#X connect 20 0 11 0;
#X connect 21 0 20 0;
#X connect 22 0 16 0;
#X connect 23 0 14 0;
#X connect 24 0 21 1;
#X connect 24 0 33 1;
#X connect 25 0 27 0;
#X connect 25 1 24 0;
#X connect 26 0 24 0;
#X connect 26 1 24 1;
#X connect 27 0 30 0;
#X connect 28 0 25 0;
#X connect 29 0 19 0;
#X connect 30 0 26 0;
#X connect 31 0 35 1;
#X connect 32 0 31 0;
#X connect 33 0 32 0;
#X connect 34 0 33 0;
#X connect 36 0 12 0;
#X connect 37 0 38 0;
#X connect 38 0 28 0;
#X connect 38 0 50 0;
#X connect 38 1 28 0;
#X connect 38 1 51 0;
#X connect 38 2 54 0;
#X connect 38 3 8 0;
#X connect 39 0 41 0;
#X connect 40 0 42 0;
#X connect 43 0 48 0;
#X connect 44 0 47 0;
#X connect 45 0 11 1;
#X connect 45 0 31 1;
#X connect 46 0 45 0;
#X connect 46 1 45 1;
#X connect 47 0 46 0;
#X connect 48 0 46 0;
#X connect 50 0 0 0;
#X connect 50 1 1 0;
#X connect 50 2 2 0;
#X connect 50 3 3 0;
#X connect 50 4 49 0;
#X connect 51 0 4 0;
#X connect 51 1 5 0;
#X connect 51 2 6 0;
#X connect 51 3 7 0;
#X connect 51 4 52 0;
#X connect 54 0 39 0;
#X connect 54 0 53 0;
#X connect 54 1 40 0;
#X connect 54 1 55 0;
