#N canvas 808 32 613 518 10;
#X obj 83 48 OSCroute /r /s;
#X floatatom 83 107 5 0 0 0 - - -;
#X floatatom 110 127 5 0 0 0 - - -;
#X floatatom 137 107 5 0 0 0 - - -;
#X floatatom 164 127 5 0 0 0 - - -;
#X floatatom 227 107 5 0 0 0 - - -;
#X floatatom 254 127 5 0 0 0 - - -;
#X floatatom 281 107 5 0 0 0 - - -;
#X floatatom 308 127 5 0 0 0 - - -;
#X msg 177 48 ERROR;
#X obj 220 48 print;
#X obj 235 270 osc~ 10;
#X obj 233 447 *~;
#X msg 422 427 0;
#X msg 439 62 \; pd dsp 1 \;;
#X msg 439 28 \; pd dsp 0 \;;
#X floatatom 235 251 5 0 0 0 - - -;
#X obj 296 270 osc~ 10;
#X floatatom 296 251 5 0 0 0 - - -;
#X obj 235 299 +~;
#X obj 106 340 osc~ 10;
#X floatatom 106 321 5 0 0 0 - - -;
#X obj 195 386 *~;
#X obj 195 343 *~;
#X obj 296 232 * 7;
#X obj 235 232 * 7;
#X obj 386 309 line;
#X obj 386 221 t b a;
#X obj 386 284 unpack f i;
#X obj 386 242 delay 700;
#X msg 386 201 0 500;
#X msg 457 425 0.9;
#X obj 106 302 * 1;
#X msg 386 263 0.9 1500;
#X obj 264 447 *~;
#X obj 339 390 *~;
#X obj 339 343 *~;
#X obj 296 299 +~;
#X obj 240 471 dac~;
#X obj 227 83 unpack i i i i i;
#X obj 83 83 unpack i i i i i;
#X floatatom 180 108 5 0 0 0 - - -;
#X floatatom 327 106 5 0 0 0 - - -;
#X obj 422 399 select 0 1;
#X obj 83 25 dumpOSC 12000;
#X connect 0 0 30 0;
#X connect 0 0 40 0;
#X connect 0 1 30 0;
#X connect 0 1 39 0;
#X connect 0 2 9 0;
#X connect 2 0 32 0;
#X connect 3 0 25 0;
#X connect 4 0 24 0;
#X connect 6 0 32 0;
#X connect 7 0 25 0;
#X connect 8 0 24 0;
#X connect 9 0 10 0;
#X connect 11 0 19 0;
#X connect 12 0 38 0;
#X connect 13 0 12 1;
#X connect 13 0 34 1;
#X connect 16 0 11 0;
#X connect 17 0 37 0;
#X connect 18 0 17 0;
#X connect 19 0 23 0;
#X connect 20 0 22 1;
#X connect 20 0 35 1;
#X connect 21 0 20 0;
#X connect 22 0 12 0;
#X connect 23 0 22 0;
#X connect 24 0 18 0;
#X connect 25 0 16 0;
#X connect 26 0 23 1;
#X connect 26 0 36 1;
#X connect 27 0 29 0;
#X connect 27 1 26 0;
#X connect 28 0 26 0;
#X connect 28 1 26 1;
#X connect 29 0 33 0;
#X connect 30 0 27 0;
#X connect 31 0 12 1;
#X connect 31 0 34 1;
#X connect 32 0 21 0;
#X connect 33 0 28 0;
#X connect 34 0 38 1;
#X connect 35 0 34 0;
#X connect 36 0 35 0;
#X connect 37 0 36 0;
#X connect 39 0 5 0;
#X connect 39 1 6 0;
#X connect 39 2 7 0;
#X connect 39 3 8 0;
#X connect 39 4 42 0;
#X connect 40 0 1 0;
#X connect 40 1 2 0;
#X connect 40 2 3 0;
#X connect 40 3 4 0;
#X connect 40 4 41 0;
#X connect 43 0 13 0;
#X connect 43 1 31 0;
#X connect 44 0 0 0;
